<svg width="220" height="220" viewBox="0 0 220 220" fill="none" xmlns="http://www.w3.org/2000/svg">
<path d="M65.9325 165C63.0962 165.006 60.3722 163.894 58.3539 161.904L8.11359 112.379C7.12727 111.407 6.34417 110.248 5.80968 108.972C5.2752 107.695 5 106.325 5 104.941C5 103.557 5.2752 102.187 5.80968 100.911C6.34417 99.6338 7.12727 98.4757 8.11359 97.5034L58.1509 48.1776C60.2355 46.1326 63.0438 44.9909 65.9664 45.0001C68.889 45.0093 71.6901 46.1687 73.7618 48.2267C75.8354 50.3014 77 53.1125 77 56.0432C77 58.974 75.8355 61.7851 73.762 63.8598L36.58 100.978C35.4216 102.137 34.771 103.708 34.771 105.345C34.771 106.982 35.4216 108.553 36.58 109.712L73.5603 146.628C75.0704 148.133 76.0992 150.051 76.5162 152.14C76.9333 154.229 76.7198 156.394 75.9029 158.361C75.086 160.329 73.7024 162.01 71.9274 163.192C70.1525 164.374 68.0661 165.003 65.9325 165V165Z" fill="#FFDC63"/>
<path d="M155.072 165C152.939 165.003 150.852 164.374 149.077 163.192C147.303 162.01 145.919 160.329 145.102 158.361C144.286 156.394 144.072 154.229 144.489 152.14C144.906 150.051 145.935 148.133 147.445 146.628L184.422 109.712C185.581 108.553 186.231 106.982 186.231 105.345C186.231 103.708 185.581 102.137 184.422 100.978L147.243 63.8599C146.215 62.8334 145.399 61.6148 144.843 60.2736C144.286 58.9324 144 57.4949 144 56.0433C144 54.5916 144.286 53.1541 144.843 51.813C145.399 50.4718 146.215 49.2532 147.243 48.2268V48.2268C149.315 46.1687 152.116 45.0093 155.038 45.0001C157.96 44.9909 160.769 46.1327 162.853 48.1776L212.887 97.5034C213.873 98.4757 214.656 99.6338 215.19 100.911C215.725 102.187 216 103.557 216 104.941C216 106.325 215.725 107.695 215.19 108.972C214.656 110.248 213.873 111.407 212.887 112.379L162.65 161.904C160.632 163.894 157.908 165.006 155.072 165Z" fill="#FFDC63"/>
<path d="M129 44L92 161" stroke="#FFDC63" stroke-width="20" stroke-linecap="round"/>
</svg>
